<svg xmlns="http://www.w3.org/2000/svg" width="128" height="128" viewBox="0 0 128 128">
  <defs>
    <linearGradient id="g" x1="0" y1="0" x2="1" y2="1">
      <stop offset="0" stop-color="#7c3aed"/>
      <stop offset="1" stop-color="#3b82f6"/>
    </linearGradient>
    <filter id="s" x="-20%" y="-20%" width="140%" height="140%">
      <feDropShadow dx="0" dy="8" stdDeviation="10" flood-color="#000" flood-opacity="0.55"/>
    </filter>
  </defs>
  <rect x="14" y="18" width="100" height="92" rx="28" fill="#0b0d14" stroke="rgba(255,255,255,0.10)"/>
  <g filter="url(#s)">
    <path d="M53 44c0-4 3-7 7-7h9c11 0 20 9 20 20v14c0 11-9 20-20 20h-9c-4 0-7-3-7-7V44z" fill="url(#g)"/>
    <path d="M43 50c0-4 3-7 7-7h7v42h-7c-4 0-7-3-7-7V50z" fill="rgba(255,255,255,0.12)"/>
    <path d="M66 53l18 11-18 11V53z" fill="#ffffff" opacity="0.9"/>
  </g>
</svg>
